# xmcd
#
# Track frame offsets:
#	150
#	16204
#	28313
#	41277
#	54854
#	67863
#	81109
#	94642
#	108862
#	123510
#	137553
#	149429
#	164225
#	178034
#	192330
#	205422
#	218072
#	233312
#	245463
#	258078
#
# Disc length: 3623 seconds
#
# Revision: 1
# Processed by: cddbd v1.5.2PL0 Copyright (c) Steve Scherf et al.
# Submitted via: audiograbber 1.83.01
#
DISCID=0d0e2514
DTITLE=Washington Phillips - The Key to the Kingdom
DYEAR=1927
DGENRE=Blues
TTITLE0=Washington Phillips - Lift Him Up That's All
TTITLE1=Washington Phillips - Paul and Silas in Jail
TTITLE2=Washington Phillips - Mother's Last Word To Her Son
TTITLE3=Washington Phillips - The Church Needs Good Deacons
TTITLE4=Washington Phillips - Jesus Is My Friend
TTITLE5=Washington Phillips - A Mother's Last Word To Her Daughter
TTITLE6=Washington Phillips - I Had A Good Father And Mother
TTITLE7=Washington Phillips - I Am Born To Preach The Gospel
TTITLE8=Washington Phillips - Take Your Burden To The  Lord And Leave It There
TTITLE9=Washington Phillips - Denomination Blues - Part 1
TTITLE10=Washington Phillips - Denomination Blues - Part 2
TTITLE11=Washington Phillips - What Are They Doing In Heaven Today
TTITLE12=Washington Phillips - I've Got The Keys To The Kingdom
TTITLE13=Washington Phillips - Train Your Child
TTITLE14=Washington Phillips - You Can't Stop A Tattler - Part 1
TTITLE15=Washington Phillips - You Can't Stop A Tattler - Part 2
TTITLE16=Blind Mamie and A.C Forehand - Wouldn't Mind Dying If Dying Was All
TTITLE17=Blind Mamie and A.C Forehand - I'm So Glad Today, Today
TTITLE18=Blind Mamie and A.C Forehand - Honey In The Rock
TTITLE19=Blind Mamie and A.C Forehand - Mother's Prayer
EXTD=YEAR: 1927
EXTT0=
EXTT1=
EXTT2=
EXTT3=
EXTT4=
EXTT5=
EXTT6=
EXTT7=
EXTT8=
EXTT9=
EXTT10=
EXTT11=
EXTT12=
EXTT13=
EXTT14=
EXTT15=
EXTT16=
EXTT17=
EXTT18=
EXTT19=
PLAYORDER=
